<?xml version="1.0" encoding="utf-8"?>
<!-- Generator: Adobe Illustrator 19.0.0, SVG Export Plug-In . SVG Version: 6.00 Build 0)  -->
<svg version="1.1" id="Ebene_1" xmlns="http://www.w3.org/2000/svg" xmlns:xlink="http://www.w3.org/1999/xlink" x="0px" y="0px"
	 viewBox="-78 127 169.6 153.1" style="enable-background:new -78 127 169.6 153.1;" xml:space="preserve">
<style type="text/css">
	.st0{fill:#003761;}
</style>
<polygon class="st0" points="67.6,174.6 67.6,183 82.2,183 82.2,219.3 91.5,219.3 91.5,174.6 "/>
<path d="M-28.8,154.4h-9.3v65.7h9.3v-24.2c0-7.6,1.2-13.4,10.4-13.4c6.6,0,7.8,3.9,7.8,9.6v28h9.3v-27.2c0-10.4-4.1-18.8-15.7-18.8
	c-4.2,0-8.8,1.5-11.7,4.5L-28.8,154.4L-28.8,154.4z"/>
<path d="M30.9,210.4c-8.8,0-11-7.2-11-14.8c0-7.1,2.2-14.6,10.6-14.6c8.6,0,11.2,6.9,11.2,14.3C41.6,202.5,39.2,210.4,30.9,210.4
	L30.9,210.4z M50.9,174.9h-9.3v4.1h-0.2h0.1c-2.7-3.6-8-4.9-12.5-4.9c-12.4,0-18.4,9.5-18.4,21c0,12,5.5,22.3,18.6,22.3
	c5,0,8.2-1.4,12.1-4.5l0.4-0.3v6.7c0,7-1.7,9.5-12.2,9.5c-3.1,0-7.9-0.5-7.7-4.5h-9.3v1c0,9.5,9.9,10.5,17.1,10.5
	c12,0,21.4-3.2,21.4-17.1V174.9L50.9,174.9z"/>
<path d="M-46.1,270.7h-1.8v-0.8c0-1,0-1.8,1.2-1.8c0.3,0,0.5,0,0.8,0.1v-0.9c-0.4-0.1-0.6-0.1-0.9-0.1c-1.8,0-2.2,1.1-2.2,2.7v0.8
	h-1.5v0.9h1.5v8.1h1.1v-8.1h1.8L-46.1,270.7L-46.1,270.7z"/>
<path d="M-38.7,269.1v-1.8h-1.2v1.8H-38.7L-38.7,269.1z M-41.8,269.1v-1.8H-43v1.8H-41.8L-41.8,269.1z M-37.2,270.7h-1.1v4.8
	c0,1.8-0.8,3.6-2.7,3.6c-1.8,0-2.4-0.9-2.4-2.5v-5.9h-1.1v5.9c0,2.1,0.9,3.4,3.2,3.4c1.4,0,2.6-0.7,3.1-1.9h0v1.6h1L-37.2,270.7
	L-37.2,270.7z"/>
<path d="M-34.6,279.8h1.1V275c0-1.9,1.4-3.4,3.4-3.3v-1.1c-1.6-0.1-2.9,0.8-3.4,2.3h0v-2.1h-1V279.8L-34.6,279.8z"/>
<polygon points="-22.8,279.8 -21.6,279.8 -21.6,267.2 -22.8,267.2 "/>
<polygon points="-19.8,268.2 -15.4,268.2 -15.4,279.8 -14.2,279.8 -14.2,268.2 -9.8,268.2 -9.8,267.2 -19.8,267.2 "/>
<path d="M-3.3,275.7c-0.1,3.1,2,4.4,5,4.4c4.5,0,4.8-2.7,4.8-3.6c0-2.1-1.5-2.8-3.3-3.3l-3.1-0.8c-1-0.2-1.9-0.7-1.9-1.9
	c0-1.9,1.5-2.5,3.2-2.5c1.8,0,3.4,1,3.4,2.9H6c0-2.6-2.2-3.9-4.6-3.9c-3.5,0-4.3,2.3-4.3,3.5c0,2,1.4,2.7,2.8,3l2.8,0.7
	c1.2,0.3,2.6,0.8,2.6,2.3c0,1.8-2,2.6-3.3,2.6c-2.3,0-4.2-0.8-4.1-3.4L-3.3,275.7L-3.3,275.7z"/>
<path d="M8.7,279.8h1.1v-9.1H8.7V279.8L8.7,279.8z M8.7,269h1.1v-1.8H8.7V269L8.7,269z"/>
<path d="M20,273.6c-0.2-2.1-1.7-3.1-3.7-3.1c-2.8,0-4.3,2.2-4.3,4.8c0,2.6,1.5,4.8,4.3,4.8c2,0,3.5-1.3,3.8-3.5h-1.1
	c-0.1,1.5-1.3,2.6-2.6,2.6c-2.1,0-3.2-1.9-3.2-3.9c0-1.9,1.1-3.9,3.2-3.9c1.4,0,2.3,0.8,2.6,2.2L20,273.6L20,273.6z"/>
<path d="M22.1,279.8h1.1v-5.3c0-1.8,1.1-3.1,2.9-3.1c1.8,0,2.3,1.2,2.3,2.7v5.7h1.1V274c0-2.2-0.8-3.5-3.3-3.5
	c-1.3,0-2.5,0.7-2.9,1.8h0v-5.1h-1.1V279.8L22.1,279.8z"/>
<path d="M39.7,275.6c0.1-2.6-1.1-5.1-4-5.1c-2.9,0-4.1,2.4-4.1,4.8c0,2.6,1.2,4.8,4.1,4.8c2.3,0,3.5-1.2,4-3.3h-1.1
	c-0.4,1.4-1.2,2.3-2.9,2.3c-2.1,0-3-2-3-3.6H39.7L39.7,275.6z M32.7,274.6c0.2-1.7,1.2-3.2,3-3.2c1.8,0,2.8,1.6,2.9,3.2H32.7
	L32.7,274.6z"/>
<path d="M41.7,279.8h1.1V275c0-1.9,1.4-3.4,3.4-3.3v-1.1c-1.6-0.1-2.9,0.8-3.4,2.3h0v-2.1h-1L41.7,279.8L41.7,279.8z"/>
<path d="M47.8,279.8h1.1v-5.3c0-1.8,1.1-3.1,2.9-3.1c1.8,0,2.3,1.2,2.3,2.7v5.7h1.1V274c0-2.2-0.8-3.5-3.3-3.5
	c-1.3,0-2.5,0.7-2.9,1.8h0v-5.1h-1.1L47.8,279.8L47.8,279.8z"/>
<path d="M65.4,275.6c0.1-2.6-1.1-5.1-4-5.1c-2.9,0-4.1,2.4-4.1,4.8c0,2.6,1.2,4.8,4.1,4.8c2.3,0,3.5-1.2,4-3.3h-1.1
	c-0.4,1.4-1.2,2.3-2.9,2.3c-2.1,0-3-2-3-3.6H65.4L65.4,275.6z M58.4,274.6c0.2-1.7,1.2-3.2,3-3.2c1.8,0,2.8,1.6,2.9,3.2H58.4
	L58.4,274.6z"/>
<path d="M67.5,279.8h1.1v-9.1h-1.1V279.8L67.5,279.8z M67.5,269h1.1v-1.8h-1.1V269L67.5,269z"/>
<path d="M73,268h-1.1v2.7h-1.6v0.9h1.6v6.2c0,1.5,0.5,2,2,2c0.3,0,0.6,0,1,0v-1c-0.3,0-0.6,0.1-0.9,0.1c-0.8-0.1-0.9-0.5-0.9-1.2
	v-6.1h1.8v-0.9H73L73,268L73,268z"/>
<polygon points="-78,254.7 -76.8,254.7 -76.8,248.6 -69.3,248.6 -69.3,254.7 -68.1,254.7 -68.1,242.1 -69.3,242.1 -69.3,247.6 
	-76.8,247.6 -76.8,242.1 -78,242.1 "/>
<path d="M-61.5,245.3c-2.8,0-4.3,2.2-4.3,4.8c0,2.6,1.5,4.8,4.3,4.8s4.3-2.2,4.3-4.8C-57.2,247.5-58.7,245.3-61.5,245.3L-61.5,245.3
	z M-61.5,246.3c2.1,0,3.2,1.9,3.2,3.9c0,1.9-1.1,3.9-3.2,3.9s-3.2-1.9-3.2-3.9C-64.6,248.2-63.6,246.3-61.5,246.3L-61.5,246.3z"/>
<path d="M-55,254.7h1.1v-4.8c0-1.9,1.4-3.4,3.4-3.3v-1.1c-1.6-0.1-2.9,0.8-3.4,2.3h0v-2.1h-1V254.7L-55,254.7z"/>
<path d="M-42.4,248.2c-0.1-2-1.5-2.9-3.3-2.9c-1.6,0-3.4,0.7-3.4,2.6c0,1.5,1.1,2,2.5,2.4l1.4,0.3c1,0.2,2,0.6,2,1.7
	c0,1.3-1.4,1.7-2.5,1.7c-1.5,0-2.6-0.8-2.7-2.3h-1.1c0.2,2.2,1.6,3.2,3.7,3.2c1.7,0,3.6-0.8,3.6-2.7c0-1.6-1.3-2.3-2.6-2.5l-1.5-0.3
	c-0.8-0.2-1.9-0.5-1.9-1.5c0-1.2,1.2-1.6,2.1-1.6c1.3,0,2.3,0.6,2.4,2H-42.4L-42.4,248.2z"/>
<path d="M-38.2,242.9h-1.1v2.7h-1.6v0.9h1.6v6.2c0,1.5,0.5,2,2,2c0.3,0,0.7,0,1,0v-0.9c-0.3,0-0.6,0.1-1,0.1
	c-0.8-0.1-0.9-0.5-0.9-1.2v-6.1h1.8v-0.9h-1.8V242.9L-38.2,242.9z"/>
<path d="M-16.2,248.3h-5.3v1h4.3c0.1,2.7-1.6,4.6-4.3,4.6c-3.3,0-4.7-2.8-4.7-5.5s1.4-5.5,4.7-5.5c2.4,0,3.9,1.7,4,3.1h1.2
	c-0.5-2.7-2.6-4.2-5.2-4.2c-4,0-5.9,3.1-5.9,6.5s2,6.5,5.9,6.5c1.8,0,3.5-0.8,4.3-2.6h0l0.2,2.3h0.9L-16.2,248.3L-16.2,248.3z"/>
<path d="M-7.6,244v-1.8h-1.2v1.8H-7.6L-7.6,244z M-10.7,244v-1.8h-1.2v1.8H-10.7L-10.7,244z M-9.8,245.3c-2.8,0-4.3,2.2-4.3,4.8
	c0,2.6,1.5,4.8,4.3,4.8s4.3-2.2,4.3-4.8C-5.5,247.5-7,245.3-9.8,245.3L-9.8,245.3z M-9.8,246.3c2.1,0,3.2,1.9,3.2,3.9
	c0,1.9-1.1,3.9-3.2,3.9s-3.2-1.9-3.2-3.9C-12.9,248.2-11.9,246.3-9.8,246.3L-9.8,246.3z"/>
<path d="M-3.3,254.7h1.1v-4.8c0-1.9,1.4-3.4,3.4-3.3v-1.1c-1.6-0.1-2.9,0.8-3.4,2.3h0v-2.1h-1V254.7L-3.3,254.7z"/>
<path d="M4.5,242.9H3.4v2.7H1.8v0.9h1.6v6.2c0,1.5,0.5,2,2,2c0.3,0,0.7,0,1,0v-0.9c-0.3,0-0.6,0.1-0.9,0.1c-0.8-0.1-0.9-0.5-0.9-1.2
	v-6.1h1.8v-0.9H4.5V242.9L4.5,242.9z"/>
<polygon points="15.1,246.4 15.1,245.6 8.1,245.6 8.1,246.5 13.7,246.5 7.7,253.8 7.7,254.7 15.3,254.7 15.3,253.7 9.1,253.7 "/>
<polygon points="22.9,254.7 24.1,254.7 24.1,242.1 22.9,242.1 "/>
<path d="M27,254.7h1.1v-5.3c0-1.8,1.1-3.1,2.9-3.1c1.8,0,2.3,1.2,2.3,2.7v5.7h1.1v-5.8c0-2.2-0.8-3.5-3.3-3.5
	c-1.3,0-2.5,0.7-2.9,1.8h0v-1.6H27L27,254.7L27,254.7z"/>
<path d="M43.6,248.2c-0.1-2-1.5-2.9-3.3-2.9c-1.6,0-3.4,0.7-3.4,2.6c0,1.5,1.1,2,2.5,2.4l1.4,0.3c1,0.2,2,0.6,2,1.7
	c0,1.3-1.4,1.7-2.5,1.7c-1.5,0-2.6-0.8-2.7-2.3h-1.1c0.2,2.2,1.6,3.2,3.7,3.2c1.7,0,3.6-0.8,3.6-2.7c0-1.6-1.3-2.3-2.6-2.5l-1.5-0.3
	c-0.8-0.2-1.9-0.5-1.9-1.5c0-1.2,1.2-1.6,2.1-1.6c1.3,0,2.3,0.6,2.4,2H43.6L43.6,248.2z"/>
<path d="M47.8,242.9h-1.1v2.7h-1.6v0.9h1.6v6.2c0,1.5,0.5,2,2,2c0.3,0,0.7,0,1,0v-0.9c-0.3,0-0.6,0.1-1,0.1
	c-0.8-0.1-0.9-0.5-0.9-1.2v-6.1h1.8v-0.9h-1.8L47.8,242.9L47.8,242.9z"/>
<path d="M51.7,254.7h1.1v-9.1h-1.1V254.7L51.7,254.7z M51.7,243.9h1.1v-1.8h-1.1V243.9L51.7,243.9z"/>
<path d="M57.3,242.9h-1.1v2.7h-1.6v0.9h1.6v6.2c0,1.5,0.5,2,2,2c0.3,0,0.7,0,1,0v-0.9c-0.3,0-0.6,0.1-1,0.1
	c-0.8-0.1-0.9-0.5-0.9-1.2v-6.1h1.8v-0.9h-1.8L57.3,242.9L57.3,242.9z"/>
<path d="M68.6,245.6h-1.1v4.8c0,1.8-0.8,3.6-2.7,3.6c-1.8,0-2.4-0.9-2.4-2.5v-5.9h-1.1v5.9c0,2.1,0.9,3.4,3.2,3.4
	c1.4,0,2.6-0.7,3.1-1.9h0v1.6h1L68.6,245.6L68.6,245.6z"/>
<path d="M73,242.9h-1.1v2.7h-1.6v0.9h1.6v6.2c0,1.5,0.5,2,2,2c0.3,0,0.6,0,1,0v-0.9c-0.3,0-0.6,0.1-0.9,0.1
	c-0.8-0.1-0.9-0.5-0.9-1.2v-6.1h1.8v-0.9H73L73,242.9L73,242.9z"/>
<polygon class="st0" points="82.3,127 82.3,139.7 91.6,139.7 91.6,127 "/>
<polygon class="st0" points="82.3,152.4 82.3,165.1 91.6,165.1 91.6,152.4 "/>
<polygon class="st0" points="82.3,267.1 82.3,279.8 91.6,279.8 91.6,267.1 "/>
<polygon class="st0" points="82.3,242.1 82.3,254.8 91.6,254.8 91.6,242.1 "/>
<polygon points="-10.8,275.4 -6.3,275.4 -6.3,274.3 -10.8,274.3 "/>
</svg>
